<svg width="166" height="74" viewBox="0 0 166 74" fill="none" xmlns="http://www.w3.org/2000/svg">
<path fill-rule="evenodd" clip-rule="evenodd" d="M159.6 2.59998C157.9 2.79998 156.2 3.09998 154.5 3.09998C153.5 3.09998 152.5 3.09998 151.4 2.99998C150.5 2.99998 149.7 2.89998 148.8 2.89998C147.9 2.89998 147 2.89998 146.1 2.99998C144.7 2.99998 143.3 3.09998 141.9 2.99998H137.9C135.9 2.79998 134 2.89998 132 3.09998C130.6 3.19998 129.2 3.29998 127.8 3.29998C125.3 3.29998 122.8 3.09998 120.3 3.09998C118.3 3.09998 116.3 3.09998 114.4 3.19998H111.6L103.3 2.99998C103.1 2.99998 102.8 2.99998 102.6 2.89998C102.3 2.89998 102.1 2.79998 101.8 2.79998C100.4 2.99998 99 3.09998 97.6 3.19998C96.2 3.19998 94.5 2.79998 93 2.79998C92.2 2.79998 91.3 2.89998 90.5 2.99998C89.6 3.09998 88.8 3.19998 87.9 3.19998C85.7 3.19998 83.6 2.99998 81.4 2.99998C80.2 2.99998 79.1 3.09998 77.9 3.19998H76.1C74.5 3.09998 73 2.89998 71.4 2.89998C70.3 2.89998 69.2 3.19998 68.1 3.29998C67.5 3.29998 67 3.19998 66.6 3.09998C66.2 2.99998 65.9 2.89998 65.5 2.89998C63.1 2.89998 60.6 3.19998 58.2 3.19998C55.7 3.19998 53.3 3.19998 50.9 2.99998C48 2.89998 45.1 2.79998 42.1 2.69998C41.8 2.69998 41.5 2.79998 41.2 2.89998C40.7 2.89998 40.4 2.99998 40 2.99998C38.9 2.99998 37.7 2.79998 36.6 2.79998H26.6C26.6 2.79998 22.9 2.99998 21.1 2.99998C18.6 2.99998 16 2.89998 13.5 2.79998C13.1 2.79998 12.7 2.89998 12.3 2.89998H2.40001C2.40001 2.89998 1.30001 1.99998 1.20001 1.49998C1.00001 1.29998 1.00001 0.999984 1.10001 0.699984C1.20001 0.399984 1.40001 0.199984 1.60001 0.0999838C1.70001 -1.61752e-05 1.90001 -1.60802e-05 2.10001 -1.60802e-05C3.80001 -1.60802e-05 5.50001 0.199984 7.20001 0.299984C7.50001 0.399984 7.70001 0.399984 8.00001 0.299984C9.20001 -0.100016 10.4 0.0999837 11.6 0.199984C12.6 0.299984 13.5 0.399984 14.5 0.199984C15.6 0.0999837 16.8 -1.60802e-05 18 -1.60802e-05C18.6 -1.60802e-05 19.2 0.199984 19.8 0.199984H29.7L39.1 0.0999838C39.5 0.0999838 39.8 0.0999838 40.2 0.0999838C40.9 0.0999838 41.6 0.0999838 42.4 0.0999838C44 0.0999838 45.6 0.299984 47.1 0.299984C48.6 0.299984 50.7 -1.60802e-05 52.4 -1.60802e-05C53.7 -1.60802e-05 55.1 0.199984 56.5 0.299984C57.9 0.299984 59.1 0.399984 60.3 0.399984H71.2C72.1 0.399984 73 0.0999839 73.9 -1.60802e-05C74.3 -1.60802e-05 74.8 -1.61752e-05 75.3 0.0999838C75.8 0.199984 76.3 0.199984 76.8 0.199984C80.4 -1.62721e-05 84 0.0999841 87.7 0.299984C89.6 0.499984 91.4 0.399984 93.3 0.199984C95.1 -1.62721e-05 96.9 -0.100016 98.7 0.0999838C100.1 0.0999838 101.6 0.199984 103 0.299984C103.6 0.299984 104.2 0.199984 104.8 0.0999838H110.2C111.1 0.0999838 112 0.199984 112.9 0.199984H128.8C131.5 0.199984 134.1 0.299984 136.8 0.399984C138.6 0.399984 140.5 0.399984 142.4 0.399984C143.4 0.399984 144.3 0.399984 145.2 0.399984C147.3 0.399984 149.4 0.199984 151.5 0.199984C152.5 0.199984 153.5 0.399984 154.5 0.399984H163.7C164.4 0.299984 165.1 0.799984 165.2 1.49998C165.2 1.59998 165.3 1.69998 165.3 1.69998C165.3 2.59998 164.6 2.89998 163.8 2.89998H159.9L159.6 2.59998ZM14.1 4.29998C10.7 4.29998 7.20001 4.09998 3.80001 4.09998V3.99998H2.10001C1.80001 3.99998 1.50001 4.19998 1.30001 4.49998C1.10001 4.79998 1.00001 5.09998 1.10001 5.49998V5.59998C1.10001 5.89998 1.30001 6.19998 1.50001 6.39998C1.70001 6.59998 2.10001 6.69998 2.40001 6.69998H13L24.5 6.59998H31.7C32.3 6.69998 32.9 6.79998 33.5 6.79998C35.6 6.29998 37.8 6.29998 39.8 6.79998C40.1 6.89998 40.5 6.89998 40.8 6.79998C41.4 6.19998 42.1 6.29998 42.7 6.39998C42.9 6.39998 43.2 6.49998 43.4 6.49998C43.7 6.49998 44 6.59998 44.4 6.69998C44.7 6.79998 45 6.89998 45.3 6.89998C47.3 6.79998 49.3 6.59998 51.3 6.59998C51.7 6.59998 52.1 6.59998 52.5 6.69998C52.9 6.79998 53.3 6.79998 53.8 6.79998C54.8 6.79998 55.7 6.59998 56.7 6.59998C57.4 6.59998 58.1 6.59998 58.9 6.59998C60.4 6.59998 61.8 6.59998 63.1 6.59998C65 6.59998 67 6.69998 68.8 6.79998C70.2 6.99998 71.7 7.09998 73.1 7.09998C75.1 6.69998 77.1 6.69998 79.1 7.09998C79.5 7.19998 80 7.19998 80.4 7.09998L85.5 6.79998C85.9 6.79998 86.2 6.89998 86.6 6.89998H89.6C92.7 6.99998 95.9 7.09998 99 7.09998C100.9 7.09998 102.8 6.79998 104.7 6.79998C105.1 6.79998 105.6 6.79998 106 6.89998C106.4 6.99998 106.8 6.99998 107.1 6.99998H118.5C119.8 6.99998 121 7.19998 122.2 7.19998C124 7.19998 125.9 7.09998 127.7 7.09998C128.1 7.09998 128.7 7.09998 129.1 7.09998C129.5 7.09998 129.9 7.09998 130.2 7.09998C130.8 7.09998 131.4 6.79998 132 6.79998H141.4L146.5 6.59998C147.1 6.79998 147.7 6.89998 148.3 6.89998C149.7 6.79998 151.1 6.59998 152.4 6.49998C152.8 6.49998 153.3 6.59998 153.7 6.69998C154.2 6.89998 154.7 6.89998 155.2 6.89998C156.7 6.39998 158.3 6.39998 159.8 6.89998C160.1 6.89998 160.5 6.89998 160.8 6.69998C161.1 6.59998 161.4 6.59998 161.6 6.59998C162.1 6.69998 162.8 6.79998 163.4 6.89998C163.5 6.89998 163.7 6.89998 163.8 6.89998C164.1 6.89998 164.4 6.69998 164.6 6.49998C164.8 6.19998 164.9 5.89998 164.8 5.59998C164.9 4.49998 164.2 4.49998 163.5 4.49998H152.8C152.4 4.49998 152.1 4.39998 151.7 4.29998C151.3 4.19998 150.9 4.19998 150.5 4.09998C148.8 4.19998 147.2 4.49998 145.5 4.49998C145 4.49998 144.4 4.39998 143.9 4.29998C143.4 4.19998 142.9 4.09998 142.4 4.09998C139 4.19998 135.6 4.39998 132.1 4.49998C131.6 4.49998 131.1 4.39998 130.6 4.29998C130.5 4.09998 130 3.99998 129.6 3.99998C122.5 3.99998 115.3 4.19998 108.2 4.19998C107 4.29998 105.9 4.19998 104.7 4.19998C104.1 4.19998 103.5 4.19998 103 4.19998C102.6 4.09998 102.1 3.99998 101.7 3.99998C101.1 3.99998 100.6 4.29998 100.1 4.29998H92L76.4 4.49998H70.6C69.3 4.49998 67.9 4.29998 66.6 4.29998C62.9 4.09998 59.3 3.99998 55.6 3.99998C53.7 3.99998 51.7 4.29998 49.7 4.29998C49 4.29998 48.3 4.29998 47.6 4.19998C47 4.09998 46.4 4.09998 45.8 4.09998C45.5 4.09998 45.2 4.09998 44.9 4.19998C44.6 4.19998 44.3 4.29998 44.1 4.29998C42.7 4.19998 41.3 4.09998 40 3.99998H39.5C37 4.09998 34.5 3.99998 32.1 4.09998C30.5 4.19998 28.9 4.09998 27.3 4.09998C26.5 4.09998 25.7 4.09998 24.9 4.09998C21.3 4.09998 17.5 4.29998 14.1 4.29998ZM20.5 55.6C23.1 52.9 24.5 49.2 24.3 45.3L24.2 43.3C24.2 41.8 24.2 41.6 22.6 41.3C21 41.2 19.3 41.2 17.7 41.5C17.6 41.5 17.5 41.5 17.5 41.5C17.2 41.5 17 41.7 16.8 41.9C16.6 42.1 16.6 42.4 16.6 42.7V47.1C16.7 48.4 16.1 49.6 15 50.1C13.5 50.8 11.7 50.2 10.8 48.8C10.1 48.1 9.80001 47.1 9.90001 46.1C10 45.5 9.90001 45 9.70002 44.4C9.50002 43.8 9.40001 43.2 9.60001 42.6C9.90001 40.8 10 38.9 9.70002 37C9.70002 36.3 9.70002 35.6 9.70002 34.9C9.70002 33.5 9.70002 32.2 9.70002 30.9C9.90001 29.3 9.90001 27.7 9.70002 26.1C9.40001 24.8 10 23.5 11.2 23C11.3 22.9 11.4 22.9 11.5 22.8C12.4 22.3 13.2 21.9 14.1 22.8C14.4 22.9 14.6 22.9 14.9 23C15.9 23.3 16.6 24.2 16.6 25.3C16.7 26.2 16.6 27.1 16.5 28C16.4 28.5 16.4 29.1 16.4 29.6C16.4 29.8 16.4 29.9 16.4 30.1C16.6 30.9 17.4 31.5 18.2 31.3C19.3 31.3 20.4 31.5 21.5 31.7C23.8 32.2 24.7 31.3 24.2 29C23.9 27.6 23.8 26.1 24 24.6C24.4 22.1 23.3 19.6 21.1 18.3C20.6 18 20.2 17.5 19.8 17.2C17.2 15.1 13.7 14.3 10.4 15.2C9.00001 15.7 7.70001 16.3 6.50001 17.1C5.40001 17.5 4.50001 18.1 3.70001 19C1.90001 21.2 0.900014 24.1 1.00001 27C1.20001 29.1 1.10001 31.3 1.00001 33.4C0.900014 35.1 0.900014 36.9 1.00001 38.6C1.10001 40.1 1.10001 41.7 1.10001 43.2C1.10001 45.5 1.10001 47.7 1.30001 50C1.40001 51.2 1.90001 52.3 2.70001 53.2C3.00001 53.5 3.30001 53.8 3.60001 54.1C5.30001 57.4 8.90001 57 11.6 58.2C14.2 58.1 16.8 57.5 19.3 56.5C19.9 56.1 20.2 55.9 20.5 55.6ZM90.4 44.4C91.4 43.7 92.5 43.9 93.6 44C93.9 44 94.3 44.1 94.6 44.1C95.3 44.1 95.3 44.7 95.2 45.4C95 46.9 95.3 48.3 96.2 49.5C97.2 50.9 99 51.5 100.7 50.8C103.1 50.3 103.4 47.2 102.6 45.3C101.7 43.2 100.1 41.5 98.2 40.5C96 39.2 94 37.6 92.1 35.9C90.2 34 88.9 31.6 88.4 29C87.7 26 88.3 22.7 90 20.1C91.7 17.5 94.5 15.8 97.6 15.5C99.3 15.3 101 15.5 102.6 15.8C106.7 16.7 108.8 19.5 109.8 23.4C110.3 24.7 110.5 26.1 110.3 27.5C110.3 28.5 109.5 29.4 108.5 29.4H108.3C106.8 28.8 105.3 29.2 103.8 28.7C103.7 28.7 103.7 28.7 103.6 28.6C103.2 28.5 102.8 28.4 102.9 27.8C103.1 24.5 102.3 21.6 98.4 22.4C96.6 22.8 95.5 24.6 95.8 26.4C95.9 27 96.2 27.5 96.5 27.9C97.7 29.4 99.2 30.8 100.8 31.9C102.3 33.2 103.9 34.2 105.4 35.4C107.4 37.1 109 39.3 110 41.8C110.8 43.6 111 45.7 110.4 47.6C110.2 48.1 110.1 48.6 110.1 49.1C110 51 109.1 52.8 107.6 54C107.3 54.2 107.1 54.5 106.8 54.7C105.2 56.5 102.9 57.5 100.5 57.4C97.9 57.6 95.2 57.2 92.7 56.5C92.4 56.5 92.2 56.4 92 56.2C91.2 54.9 89.9 53.9 89.2 52.6C88.2 51.1 87.7 49.3 87.9 47.5C88 46.9 88 46.3 87.9 45.6C87.9 44 88.1 43.7 89.6 43.7C89.9 44.2 90.2 44.3 90.4 44.4ZM54.2 25.9C54.1 24.5 54 23 54 21.6C54 20.2 54.1 18.8 54.1 17.3C54 16.2 53.8 16.1 52.8 16.2C51 16.4 49.3 16.4 47.5 16.2C45.8 16.1 45.4 16.4 45.3 18.1C45.1 19.7 45.3 21.3 45.4 23C45.6 25.2 45.7 27.5 45.2 29.7C45.2 30.1 45.3 30.5 45.5 30.9C45.7 31.4 45.8 31.8 46 32.3C46 32.4 46 32.5 46 32.6C46 32.8 45.9 32.9 45.8 33C45.7 33.1 45.5 33.2 45.4 33.2C43.6 32.9 41.7 32.9 39.9 33.3C39.1 33.5 38.3 33 38.1 32.2C38.1 30.7 38 29.3 37.8 27.8C38 26 38.2 24.2 38.2 22.4C38.1 21.4 38.2 20.4 38.2 19.4C38.2 18.7 38.3 18.1 38.3 17.4V17.3C38.4 16.8 38 16.2 37.5 16.1C36.7 15.9 35.9 16 35 16C34 16.1 33 16.2 31.9 15.7C31.4 15.7 30.9 15.8 30.4 16H30C29.9 16 29.8 16 29.7 16C29.5 16.1 29.3 16.3 29.2 16.5C29.1 16.7 29.1 17 29.2 17.2C29.3 18.6 29.3 20 29.2 21.4C29 22 29 22.5 29 23C29.3 23.6 29.2 24.3 29.2 24.9C29.2 25.5 29.2 26.1 29.4 26.5C29.8 27.3 29.6 27.9 29.3 28.5C29.2 28.9 29 29.2 29 29.6V30.9C28.9 32.7 28.9 34.4 29 36.2C29 38.2 29 40.2 28.9 42.2C28.9 43.2 29 44.2 29.1 45.2C29.2 46.5 29.3 47.7 29.2 49C29.1 51.1 29.1 53.2 29.2 55.3C29.2 56.9 31 57.1 31 57.1H36C36.8 57.1 37.4 56.5 37.5 55.7C37.8 52.7 37.8 49.7 37.5 46.7C37.2 45.5 37.3 44.3 37.7 43.2C38 42.7 38 42.1 37.7 41.6C37.3 40.9 37.7 40.6 38.4 40.6C40.6 40.8 42.7 40.7 44.9 40.4C45.2 40.3 45.5 40.4 45.7 40.6C45.9 40.8 45.9 41.1 45.8 41.4C45.6 42.4 45.5 43.5 45.5 44.5C45.7 45.6 45.8 46.7 45.8 47.7C45.5 49.2 45.6 50.6 45.6 52.1C45.6 53.2 45.6 54.3 45.5 55.3C45.4 56.9 45.8 57.3 47.2 57.3C49 57.3 50.9 57.3 52.7 57.2C53.9 57.1 54.4 56.1 53.9 54.7C53.8 54.4 53.8 54 53.8 53.7C53.9 49.7 53.9 45.6 53.9 41.6C54.2 40.5 54.4 39.3 54.5 38.1C54.2 35.7 54.1 33.4 54.3 31C54.4 29.3 54.3 27.6 54.2 25.9ZM131.3 32.5H127.6C127.1 32.5 126 32.5 124.9 32.5C124.2 32.5 123.9 32.3 124 31.5C124.4 29 124.3 26.4 123.7 23.9C123.7 23.8 123.7 23.7 123.7 23.5C123.7 23.3 123.8 23.2 123.9 23.1C124 23 124.2 23 124.3 23C124.7 23 125.1 23.1 125.5 23.2C126.8 23.6 128.3 23.7 129.6 23.3C130.4 23.2 131.1 23.2 131.9 23.3C132.7 23.3 133.8 23.4 134.6 23.5C135.4 23.5 135.9 23.1 135.7 22.4C135.5 20.9 135.5 19.5 135.7 18C135.7 16.3 135.7 16.3 133.9 16.3C132.6 16.2 131.2 16.3 129.9 16.4C128 16.5 126.2 16.6 124.3 16.3C123.2 16.1 122 16.2 120.9 16.2C119.9 16.3 118.8 16.3 117.9 16.2C115.9 15.9 115.3 16.8 115.6 18.9C115.9 20.4 115.9 21.9 115.9 23.5C115.8 25 115.8 26.4 115.9 27.9C116.1 30.7 116.1 33.6 116.1 36.5C116.1 37.2 116.1 37.9 116.1 38.7C116.1 39.8 116 40.9 116 42C115.9 43 115.9 44.1 115.9 45.1C115.9 46.8 116.1 48.2 116.1 50.1C116.2 52 116.2 53.9 116.1 55.8C116 56.5 116.1 57.1 117 57.1C118.7 57.2 120.4 57.1 122 57C124 56.7 126 56.7 128 56.9C128.7 56.9 129.3 56.9 130 56.9C131.4 56.9 132.8 56.9 134.3 57.1C135.7 57.3 136.1 56.6 136.1 55C135.8 53.7 135.7 52.3 135.8 51C135.9 50 135.5 49.8 134.6 49.8C133.6 49.8 132.7 49.8 131.7 49.8C129.8 49.8 127.9 49.7 126 49.8C124.2 49.9 124 49.8 124.2 47.9C124.2 47.6 124.3 47.3 124.3 47.1C124.7 45.7 124.7 44.3 124.3 42.9C124.2 42.4 124.2 41.9 124.2 41.5C124.2 41 124.3 40.5 124.1 40C124.1 39.9 124.1 39.9 124.1 39.8C124.1 39.6 124.2 39.5 124.4 39.3C124.5 39.2 124.7 39.1 124.9 39.2C125.8 39.3 126.7 39.3 127.6 39.2C128.9 39.3 130.2 39.3 131.5 39.1H131.6C131.8 39.1 131.9 39 132 38.9C132.1 38.8 132.2 38.6 132.2 38.4C132.1 37.7 132.3 37 132.4 36.3C132.6 35.5 132.7 34.7 132.6 33.8C132.6 33.7 132.6 33.7 132.6 33.6C132.6 33.3 132.5 33 132.3 32.9C131.8 32.6 131.5 32.5 131.3 32.5ZM155.4 16.6H149.3C147.1 16.5 144.8 16.5 142.5 16.4C141.7 16.4 141.2 16.7 141.4 17.5C141.6 19 141.6 20.4 141.4 21.9C141.4 27 141.4 32.1 141.3 37.1C141.5 39.6 141.4 42.1 141.2 44.5C141.2 45.7 141.3 46.9 141.6 48C141.7 49.1 141.6 50.3 141.6 51.4C141.5 52.7 141.4 54.1 141.6 55.5C141.8 56.7 141.8 56.8 143.1 56.8C144.9 56.6 146.7 56.5 148.5 56.5C149.3 56.6 149.5 56 149.6 55.3C149.7 53.5 149.6 51.7 149.4 49.9V41.8C149.3 41.3 149.3 40.8 149.4 40.3C149.9 39.5 152.7 39.9 153.4 40.1H153.6C154.4 40.2 155 40.6 155.5 41.2C156 41.8 156.2 42.6 156.1 43.3C156.2 44.8 156.1 46.3 156 47.7C155.7 50 155.9 52.3 156.6 54.5C156.8 55.5 157.5 56.3 158.5 56.6C159.8 56.9 161.2 57 162.6 57.1C165.6 57.4 165.5 56.4 164.8 54.3C164.7 53.9 164.5 53.5 164.3 53.1C164 52.5 163.8 51.9 163.8 51.2C163.6 48.7 163.5 46.1 163.6 43.6C164.2 41 162.9 38.2 160.4 37.1C159.8 36.8 159.7 36.5 160.4 36.1C162.4 35.1 163.6 33 163.2 30.7C163.1 30 163.1 29.3 163.3 28.6C163.8 27 163.5 25.5 163.3 24C163.2 23.4 163.1 22.7 163 22.1C162.9 21.3 162.7 20.6 162.3 19.9C160.8 17.9 158.2 16.5 155.4 16.6ZM72.1 49C71.1 49.1 70.1 49.2 69.1 49.2C68.4 49.1 67.8 49.6 67.7 50.3V50.4C67.4 51.9 67.3 53.3 67.2 54.8C67.2 56.8 67 57 65 56.9C63.3 57.1 61.7 57.1 60 56.9C59.5 56.8 59.2 56.4 59.3 55.9C59.3 55 59.4 54.1 59.6 53.2C60.3 51.3 60.7 49.2 60.7 47.2C60.7 46.7 60.8 46.2 61 45.8C61.7 44.1 62.2 42.3 62.3 40.4C62.3 38.8 62.6 37.2 63.4 35.8C63.7 35.1 63.8 34.3 63.8 33.5C64.6 29.3 65.5 25.2 66.4 21C66.9 19.8 67.1 18.4 67 17.1C66.7 16.4 67.5 16.4 68 16.4H72.3C73.1 16.5 73.8 16.5 74.6 16.4C76.3 16.1 76.7 16.4 76.9 18.1C77.4 20 77.7 21.9 77.7 23.9C77.8 24.7 78 25.5 78.4 26.3C79 28.2 78.8 30.3 79.3 32.2C79.9 34.1 80.4 36.1 80.7 38.2C80.9 40.2 81.3 42.2 82 44.2C82.1 44.6 82.1 45.1 82 45.5C82 46.5 82.2 47.5 82.6 48.3C83.1 49.3 83.4 50.4 83.3 51.5C83.1 52.8 83.3 54.2 84 55.3C84.6 56.4 84.3 56.6 83.1 56.9C81.7 57.1 80.2 57 78.8 56.7C78.5 56.6 78.1 56.7 77.7 56.7C77.1 56.8 76.6 56.9 76.1 56.5C75.8 55.7 75.6 54.9 75.7 54.1C75.2 52.6 75 51.1 75.1 49.6C75.1 49.1 74.9 49 74.5 49H72.1ZM155.9 31C155.9 30.2 155.9 29.4 155.8 28.6C155.7 27.7 155.7 26.8 155.7 26C155.9 25.1 155.6 24.2 154.9 23.6C154.2 23 153.3 22.8 152.5 23.1C152 23.2 151.6 23.3 151.1 23.3C149.8 23.4 149.5 23.7 149.6 24.9C149.5 26.6 149.6 28.2 149.8 29.9C150 30.6 149.7 31.3 149.5 31.9C149.2 32.8 148.9 33.6 149.6 34.2C150.7 34.6 151.9 34.6 153.1 34.2C154.7 34.1 156 32.7 155.9 31ZM70.6 42.2C69.3 42.1 69.2 41.9 69.3 40.5C69.3 40.2 69.3 39.8 69.4 39.5C70.2 37.1 70.7 34.6 70.7 32.1V31.3C70.7 31.1 70.9 30.9 71.1 30.9C71.4 30.9 71.7 31 71.7 31.3C71.8 31.5 71.8 31.7 71.8 31.9C71.4 33.1 71.7 34.2 72 35.3C72.1 35.8 72.3 36.3 72.4 36.8C72.7 38.5 73.1 40.2 73.5 41.9C73.6 42.5 73.6 42.7 72.9 42.5C72.2 42.3 71.4 42.2 70.6 42.2ZM90.6 44.6C90.5 44.7 90.5 44.7 90.5 44.5L90.6 44.6ZM159.1 69.5C159.9 69.7 160.7 69.8 161.5 69.6L161.4 69.5H162.7C164.2 69.5 164.9 69.1 164.9 68.2C164.9 67.3 164.3 66.9 162.8 66.7C161.8 66.6 160.8 66.7 159.7 66.8C158.7 66.9 157.6 67 156.6 66.9C154.6 66.7 152.6 66.7 150.6 66.9C149.2 67 147.8 66.9 146.5 66.9C145 66.9 143.5 66.8 141.9 66.9C140.3 67 138.6 67 137 66.9C136.2 66.9 135.4 66.9 134.6 66.9C133.6 66.9 132.7 66.9 131.8 66.9C129.9 66.9 128.1 67 126.3 66.9C123.9 66.7 121.5 66.7 119.2 66.9C117.8 67.1 116.4 67.1 115.1 66.9C113.5 66.7 111.9 66.7 110.3 66.9C109 67.1 107.7 67.1 106.4 67C103.6 66.9 100.7 66.9 97.9 66.9C94.7 67.2 91.5 67.2 88.3 66.9C86.7 66.5 85 66.6 83.4 67.2C83.1 67.3 82.7 67.3 82.4 67.2C80.2 66.8 78 66.7 75.8 66.9C75.3 66.9 74.7 67 74.2 67C73.6 67.1 73 67.2 72.3 67.1C70.5 66.8 68.6 66.7 66.8 66.8C62.9 67.2 58.9 67.3 55 67.1L34.5 67C30.9 67 27.3 66.8 23.6 66.8C21.4 66.7 19.1 66.7 16.9 66.8C15.1 67 13.2 67 11.4 66.8C10.2 66.6 8.90001 66.6 7.70001 66.7C7.30001 66.8 6.90001 66.8 6.50001 66.7C5.20001 66.3 3.90001 66.2 2.60001 66.6C2.40001 66.6 2.30001 66.6 2.10001 66.6C1.20001 66.8 0.600013 67.6 0.800013 68.5C1.00001 69.6 1.80001 69.5 2.50001 69.5C2.60001 69.5 2.60001 69.5 2.70001 69.5C4.60001 69.6 6.50001 69.6 8.30001 69.5C12.4 69.6 16.7 69.6 20.7 69.6C22.3 69.6 23.9 69.5 25.4 69.5C27.8 69.4 30.2 69.3 32.6 69.4C37.3 69.5 41.9 69.5 46.6 69.5C48.1 69.6 49.7 69.6 51.2 69.5C52.8 69.2 54.5 69.3 56.1 69.9C56.6 70.1 57.1 70.1 57.5 69.9C59.7 69.3 62 69.2 64.3 69.7C65.7 69.8 67.1 69.8 68.4 69.8C69.2 69.8 70 69.7 70.8 69.7C71.8 69.6 72.9 69.5 73.9 69.6C76.7 69.9 79.6 69.9 82.4 69.6C83 69.5 83.6 69.5 84.2 69.6C85.4 70 86.6 70.1 87.9 69.9C91.2 69.3 94.5 69.2 97.8 69.5C100.7 69.8 103.6 69.8 106.5 69.4C107.9 69.1 109.4 69.1 110.9 69.4C111.9 69.6 112.8 69.6 113.8 69.4C115.8 69.2 117.8 69.1 119.9 69.2C125.5 69.3 131.2 69.3 136.8 69.4C139.6 69.2 142.5 69.2 145.3 69.4C146.1 69.3 147 69.3 147.8 69.3C149 69.6 150.1 69.5 151.3 69.4C152.3 69.3 153.2 69.2 154.2 69.3C155.1 69.4 156.1 69.4 157.1 69.3C157.7 69.2 158.4 69.3 159.1 69.5ZM4.00001 70.7H4.10001C6.60001 71.1 9.10001 71.1 11.5 70.6C12.4 70.4 13.3 70.5 14.2 70.8C15.1 71 16 71 16.9 70.7C19 70.5 21.2 70.5 23.4 70.9C24.4 71.1 25.3 71.1 26.3 70.9C28.3 70.6 30.3 70.5 32.4 70.7C33.1 70.7 33.9 70.7 34.6 70.7C36.6 70.7 38.7 70.7 40.8 70.8C42.2 70.9 43.7 70.9 45.1 70.8C47.2 70.7 49.2 70.6 51.3 71.1C54.6 70.8 58 70.9 61.3 71C63 71.1 64.6 71.1 66.3 71.1C67.9 71.2 69.5 71.2 71 70.8C71.3 70.7 71.7 70.7 72 70.8C74 71 76.2 71 78.5 71C79.7 71 80.9 71 82.2 71C84.9 71 87.4 71 90 70.9C90.7 70.9 91.4 70.9 92 70.9C93.4 70.9 94.7 70.8 96.1 70.9C97.7 71 99.3 71 100.9 70.9C102.2 70.9 103.4 70.8 104.7 70.9C106.2 71 107.8 71 109.3 70.9C110.4 70.6 111.5 70.5 112.6 70.5C113.6 70.6 114.5 70.7 115.5 70.8C116.1 71.1 116.9 71.1 117.6 70.8C118 70.6 118.5 70.6 118.9 70.6C120.3 70.6 121.7 70.6 123.1 70.6C126.6 70.6 130.1 70.5 133.6 70.7C136.3 70.9 139.1 70.9 141.8 70.7C144 70.5 146.2 70.6 148.4 70.6C149.5 70.6 150.7 70.7 151.8 70.7C153.1 70.7 154.3 70.7 155.6 70.8C158.1 70.9 160.6 71 163.2 70.7C163.6 70.6 164 70.7 164.3 70.9C164.6 71.1 164.9 71.4 165 71.8C165 71.9 165 72.1 165 72.2C164.9 73.1 164.1 73.7 163.3 73.6C161.1 73.1 158.8 73 156.5 73.3C154.3 73 152.2 73.1 150.1 73.6C149.8 73.7 149.4 73.7 149.1 73.6C146.8 73 144.4 73 142.1 73.5C141.5 73.5 141 73.4 140.4 73.3C139.9 73.2 139.4 73.1 138.8 73.1L132.9 73.3C129.9 73.4 127 73.4 124 73.3C122.5 73.3 121 73.3 119.5 73.3C118.3 73.3 117.1 73.3 115.8 73.3C113.4 73.3 111 73.2 108.6 73.3C106 73.4 103.4 73.3 100.8 73.3C98.2 73.3 95.6 73.2 93 73.3C90 73.6 87 73.5 84.1 73.2C84 73.2 83.8 73.2 83.7 73.2C82.8 73.6 81.8 73.5 80.9 73.5C80.2 73.5 79.6 73.4 78.9 73.5C77.7 73.4 76.5 73.4 75.4 73.5C73.8 73.8 72.1 73.8 70.5 73.5C68.6 73.3 66.7 73.4 64.8 73.9C64.5 74 64.2 74 64 73.9C61.8 73.5 59.6 73.5 57.5 73.9C56.4 73.9 55.3 73.8 54.3 73.6C52.3 73.6 50.2 73.7 48.2 73.9C47.1 73.8 46 73.7 45 73.4C44.6 73.3 44.2 73.2 43.8 73.3C41.9 73.6 40 73.5 38.2 73.5C36.7 73.4 35.2 73.4 33.7 73.5C30.9 73.7 28 73.7 25.2 73.6C23.8 73.6 22.3 73.5 20.9 73.5L4.70001 73.4H2.60001C2.00001 73.3 1.60001 72.8 1.70001 72.2C1.60001 71.9 1.70001 71.7 1.80001 71.5C1.90001 71.3 2.20001 71.1 2.40001 71.1H2.60001L4.00001 70.7Z" fill="#302E3F"/>
</svg>
